<svg width="171" height="66" viewBox="0 0 171 66" fill="none" xmlns="http://www.w3.org/2000/svg">
<path d="M7.512 19.288C6.184 19.288 4.896 19.112 3.648 18.76C2.416 18.392 1.424 17.92 0.672 17.344L1.992 14.416C2.712 14.944 3.568 15.368 4.56 15.688C5.552 16.008 6.544 16.168 7.536 16.168C8.64 16.168 9.456 16.008 9.984 15.688C10.512 15.352 10.776 14.912 10.776 14.368C10.776 13.968 10.616 13.64 10.296 13.384C9.992 13.112 9.592 12.896 9.096 12.736C8.616 12.576 7.96 12.4 7.128 12.208C5.848 11.904 4.8 11.6 3.984 11.296C3.168 10.992 2.464 10.504 1.872 9.832C1.296 9.16 1.008 8.264 1.008 7.144C1.008 6.168 1.272 5.288 1.8 4.504C2.328 3.704 3.12 3.072 4.176 2.608C5.248 2.144 6.552 1.912 8.088 1.912C9.16 1.912 10.208 2.04 11.232 2.296C12.256 2.552 13.152 2.92 13.92 3.4L12.72 6.352C11.168 5.472 9.616 5.032 8.064 5.032C6.976 5.032 6.168 5.208 5.64 5.56C5.128 5.912 4.872 6.376 4.872 6.952C4.872 7.528 5.168 7.96 5.76 8.248C6.368 8.52 7.288 8.792 8.52 9.064C9.8 9.368 10.848 9.672 11.664 9.976C12.48 10.28 13.176 10.76 13.752 11.416C14.344 12.072 14.64 12.96 14.64 14.08C14.64 15.04 14.368 15.92 13.824 16.72C13.296 17.504 12.496 18.128 11.424 18.592C10.352 19.056 9.048 19.288 7.512 19.288ZM17.0327 6.088H20.7767V19H17.0327V6.088ZM18.9047 4.288C18.2167 4.288 17.6567 4.088 17.2247 3.688C16.7927 3.288 16.5767 2.792 16.5767 2.2C16.5767 1.608 16.7927 1.112 17.2247 0.711999C17.6567 0.311999 18.2167 0.111999 18.9047 0.111999C19.5927 0.111999 20.1527 0.303999 20.5847 0.688C21.0167 1.072 21.2327 1.552 21.2327 2.128C21.2327 2.752 21.0167 3.272 20.5847 3.688C20.1527 4.088 19.5927 4.288 18.9047 4.288ZM32.5794 18.376C32.2114 18.648 31.7554 18.856 31.2114 19C30.6834 19.128 30.1234 19.192 29.5314 19.192C27.9954 19.192 26.8034 18.8 25.9554 18.016C25.1234 17.232 24.7074 16.08 24.7074 14.56V9.256H22.7154V6.376H24.7074V3.232H28.4514V6.376H31.6674V9.256H28.4514V14.512C28.4514 15.056 28.5874 15.48 28.8594 15.784C29.1474 16.072 29.5474 16.216 30.0594 16.216C30.6514 16.216 31.1554 16.056 31.5714 15.736L32.5794 18.376ZM46.9307 12.592C46.9307 12.64 46.9067 12.976 46.8587 13.6H37.0907C37.2667 14.4 37.6827 15.032 38.3387 15.496C38.9947 15.96 39.8107 16.192 40.7867 16.192C41.4587 16.192 42.0507 16.096 42.5627 15.904C43.0907 15.696 43.5787 15.376 44.0267 14.944L46.0187 17.104C44.8027 18.496 43.0267 19.192 40.6907 19.192C39.2347 19.192 37.9467 18.912 36.8267 18.352C35.7067 17.776 34.8427 16.984 34.2347 15.976C33.6267 14.968 33.3227 13.824 33.3227 12.544C33.3227 11.28 33.6187 10.144 34.2107 9.136C34.8187 8.112 35.6427 7.32 36.6827 6.76C37.7387 6.184 38.9147 5.896 40.2107 5.896C41.4747 5.896 42.6187 6.168 43.6427 6.712C44.6667 7.256 45.4667 8.04 46.0427 9.064C46.6347 10.072 46.9307 11.248 46.9307 12.592ZM40.2347 8.728C39.3867 8.728 38.6747 8.968 38.0987 9.448C37.5227 9.928 37.1707 10.584 37.0427 11.416H43.4027C43.2747 10.6 42.9227 9.952 42.3467 9.472C41.7707 8.976 41.0667 8.728 40.2347 8.728Z" fill="#494949"/>
<path d="M1.992 25.2H9.624C11.448 25.2 13.056 25.552 14.448 26.256C15.856 26.944 16.944 27.92 17.712 29.184C18.496 30.448 18.888 31.92 18.888 33.6C18.888 35.28 18.496 36.752 17.712 38.016C16.944 39.28 15.856 40.264 14.448 40.968C13.056 41.656 11.448 42 9.624 42H1.992V25.2ZM9.432 38.808C11.112 38.808 12.448 38.344 13.44 37.416C14.448 36.472 14.952 35.2 14.952 33.6C14.952 32 14.448 30.736 13.44 29.808C12.448 28.864 11.112 28.392 9.432 28.392H5.88V38.808H9.432ZM34.2041 35.592C34.2041 35.64 34.1801 35.976 34.1321 36.6H24.3641C24.5401 37.4 24.9561 38.032 25.6121 38.496C26.2681 38.96 27.0841 39.192 28.0601 39.192C28.7321 39.192 29.3241 39.096 29.8361 38.904C30.3641 38.696 30.8521 38.376 31.3001 37.944L33.2921 40.104C32.0761 41.496 30.3001 42.192 27.9641 42.192C26.5081 42.192 25.2201 41.912 24.1001 41.352C22.9801 40.776 22.1161 39.984 21.5081 38.976C20.9001 37.968 20.5961 36.824 20.5961 35.544C20.5961 34.28 20.8921 33.144 21.4841 32.136C22.0921 31.112 22.9161 30.32 23.9561 29.76C25.0121 29.184 26.1881 28.896 27.4841 28.896C28.7481 28.896 29.8921 29.168 30.9161 29.712C31.9401 30.256 32.7401 31.04 33.3161 32.064C33.9081 33.072 34.2041 34.248 34.2041 35.592ZM27.5081 31.728C26.6601 31.728 25.9481 31.968 25.3721 32.448C24.7961 32.928 24.4441 33.584 24.3161 34.416H30.6761C30.5481 33.6 30.1961 32.952 29.6201 32.472C29.0441 31.976 28.3401 31.728 27.5081 31.728ZM49.2784 29.088L43.8304 42H39.9664L34.5424 29.088H38.4064L41.9824 37.872L45.6784 29.088H49.2784ZM63.1026 35.592C63.1026 35.64 63.0786 35.976 63.0306 36.6H53.2626C53.4386 37.4 53.8546 38.032 54.5106 38.496C55.1666 38.96 55.9826 39.192 56.9586 39.192C57.6306 39.192 58.2226 39.096 58.7346 38.904C59.2626 38.696 59.7506 38.376 60.1986 37.944L62.1906 40.104C60.9746 41.496 59.1986 42.192 56.8626 42.192C55.4066 42.192 54.1186 41.912 52.9986 41.352C51.8786 40.776 51.0146 39.984 50.4066 38.976C49.7986 37.968 49.4946 36.824 49.4946 35.544C49.4946 34.28 49.7906 33.144 50.3826 32.136C50.9906 31.112 51.8146 30.32 52.8546 29.76C53.9106 29.184 55.0866 28.896 56.3826 28.896C57.6466 28.896 58.7906 29.168 59.8146 29.712C60.8386 30.256 61.6386 31.04 62.2146 32.064C62.8066 33.072 63.1026 34.248 63.1026 35.592ZM56.4066 31.728C55.5586 31.728 54.8466 31.968 54.2706 32.448C53.6946 32.928 53.3426 33.584 53.2146 34.416H59.5746C59.4466 33.6 59.0946 32.952 58.5186 32.472C57.9426 31.976 57.2386 31.728 56.4066 31.728ZM65.5952 24.192H69.3392V42H65.5952V24.192ZM78.9579 42.192C77.5979 42.192 76.3739 41.912 75.2859 41.352C74.2139 40.776 73.3739 39.984 72.7659 38.976C72.1579 37.968 71.8539 36.824 71.8539 35.544C71.8539 34.264 72.1579 33.12 72.7659 32.112C73.3739 31.104 74.2139 30.32 75.2859 29.76C76.3739 29.184 77.5979 28.896 78.9579 28.896C80.3179 28.896 81.5339 29.184 82.6059 29.76C83.6779 30.32 84.5179 31.104 85.1259 32.112C85.7339 33.12 86.0379 34.264 86.0379 35.544C86.0379 36.824 85.7339 37.968 85.1259 38.976C84.5179 39.984 83.6779 40.776 82.6059 41.352C81.5339 41.912 80.3179 42.192 78.9579 42.192ZM78.9579 39.12C79.9179 39.12 80.7019 38.8 81.3099 38.16C81.9339 37.504 82.2459 36.632 82.2459 35.544C82.2459 34.456 81.9339 33.592 81.3099 32.952C80.7019 32.296 79.9179 31.968 78.9579 31.968C77.9979 31.968 77.2059 32.296 76.5819 32.952C75.9579 33.592 75.6459 34.456 75.6459 35.544C75.6459 36.632 75.9579 37.504 76.5819 38.16C77.2059 38.8 77.9979 39.12 78.9579 39.12ZM96.1725 28.896C97.3725 28.896 98.4605 29.176 99.4365 29.736C100.429 30.28 101.205 31.056 101.765 32.064C102.325 33.056 102.605 34.216 102.605 35.544C102.605 36.872 102.325 38.04 101.765 39.048C101.205 40.04 100.429 40.816 99.4365 41.376C98.4605 41.92 97.3725 42.192 96.1725 42.192C94.5245 42.192 93.2285 41.672 92.2845 40.632V46.656H88.5405V29.088H92.1165V30.576C93.0445 29.456 94.3965 28.896 96.1725 28.896ZM95.5245 39.12C96.4845 39.12 97.2685 38.8 97.8765 38.16C98.5005 37.504 98.8125 36.632 98.8125 35.544C98.8125 34.456 98.5005 33.592 97.8765 32.952C97.2685 32.296 96.4845 31.968 95.5245 31.968C94.5645 31.968 93.7725 32.296 93.1485 32.952C92.5405 33.592 92.2365 34.456 92.2365 35.544C92.2365 36.632 92.5405 37.504 93.1485 38.16C93.7725 38.8 94.5645 39.12 95.5245 39.12ZM121.647 28.896C123.263 28.896 124.543 29.376 125.487 30.336C126.447 31.28 126.927 32.704 126.927 34.608V42H123.183V35.184C123.183 34.16 122.967 33.4 122.535 32.904C122.119 32.392 121.519 32.136 120.735 32.136C119.855 32.136 119.159 32.424 118.647 33C118.135 33.56 117.879 34.4 117.879 35.52V42H114.135V35.184C114.135 33.152 113.319 32.136 111.687 32.136C110.823 32.136 110.135 32.424 109.623 33C109.111 33.56 108.855 34.4 108.855 35.52V42H105.111V29.088H108.687V30.576C109.167 30.032 109.751 29.616 110.439 29.328C111.143 29.04 111.911 28.896 112.743 28.896C113.655 28.896 114.479 29.08 115.215 29.448C115.951 29.8 116.543 30.32 116.991 31.008C117.519 30.336 118.183 29.816 118.983 29.448C119.799 29.08 120.687 28.896 121.647 28.896ZM143.071 35.592C143.071 35.64 143.047 35.976 142.999 36.6H133.231C133.407 37.4 133.823 38.032 134.479 38.496C135.135 38.96 135.951 39.192 136.927 39.192C137.599 39.192 138.191 39.096 138.703 38.904C139.231 38.696 139.719 38.376 140.167 37.944L142.159 40.104C140.943 41.496 139.167 42.192 136.831 42.192C135.375 42.192 134.087 41.912 132.967 41.352C131.847 40.776 130.983 39.984 130.375 38.976C129.767 37.968 129.463 36.824 129.463 35.544C129.463 34.28 129.759 33.144 130.351 32.136C130.959 31.112 131.783 30.32 132.823 29.76C133.879 29.184 135.055 28.896 136.351 28.896C137.615 28.896 138.759 29.168 139.783 29.712C140.807 30.256 141.607 31.04 142.183 32.064C142.775 33.072 143.071 34.248 143.071 35.592ZM136.375 31.728C135.527 31.728 134.815 31.968 134.239 32.448C133.663 32.928 133.311 33.584 133.183 34.416H139.543C139.415 33.6 139.063 32.952 138.487 32.472C137.911 31.976 137.207 31.728 136.375 31.728ZM153.412 28.896C155.012 28.896 156.3 29.376 157.276 30.336C158.268 31.296 158.764 32.72 158.764 34.608V42H155.02V35.184C155.02 34.16 154.796 33.4 154.348 32.904C153.9 32.392 153.252 32.136 152.404 32.136C151.46 32.136 150.708 32.432 150.148 33.024C149.588 33.6 149.308 34.464 149.308 35.616V42H145.564V29.088H149.14V30.6C149.636 30.056 150.252 29.64 150.988 29.352C151.724 29.048 152.532 28.896 153.412 28.896ZM170.486 41.376C170.118 41.648 169.662 41.856 169.118 42C168.59 42.128 168.03 42.192 167.438 42.192C165.902 42.192 164.71 41.8 163.862 41.016C163.03 40.232 162.614 39.08 162.614 37.56V32.256H160.622V29.376H162.614V26.232H166.358V29.376H169.574V32.256H166.358V37.512C166.358 38.056 166.494 38.48 166.766 38.784C167.054 39.072 167.454 39.216 167.966 39.216C168.558 39.216 169.062 39.056 169.478 38.736L170.486 41.376Z" fill="#494949"/>
<path d="M108.472 51.368H103.096V48.2H117.736V51.368H112.36V65H108.472V51.368ZM130.899 58.592C130.899 58.64 130.875 58.976 130.827 59.6H121.059C121.235 60.4 121.651 61.032 122.307 61.496C122.963 61.96 123.779 62.192 124.755 62.192C125.427 62.192 126.019 62.096 126.531 61.904C127.059 61.696 127.547 61.376 127.995 60.944L129.987 63.104C128.771 64.496 126.995 65.192 124.659 65.192C123.203 65.192 121.915 64.912 120.795 64.352C119.675 63.776 118.811 62.984 118.203 61.976C117.595 60.968 117.291 59.824 117.291 58.544C117.291 57.28 117.587 56.144 118.179 55.136C118.787 54.112 119.611 53.32 120.651 52.76C121.707 52.184 122.883 51.896 124.179 51.896C125.443 51.896 126.587 52.168 127.611 52.712C128.635 53.256 129.435 54.04 130.011 55.064C130.603 56.072 130.899 57.248 130.899 58.592ZM124.203 54.728C123.355 54.728 122.643 54.968 122.067 55.448C121.491 55.928 121.139 56.584 121.011 57.416H127.371C127.243 56.6 126.891 55.952 126.315 55.472C125.739 54.976 125.035 54.728 124.203 54.728ZM138.249 51.896C140.249 51.896 141.785 52.376 142.857 53.336C143.929 54.28 144.465 55.712 144.465 57.632V65H140.961V63.392C140.257 64.592 138.945 65.192 137.025 65.192C136.033 65.192 135.169 65.024 134.433 64.688C133.713 64.352 133.161 63.888 132.777 63.296C132.393 62.704 132.201 62.032 132.201 61.28C132.201 60.08 132.649 59.136 133.545 58.448C134.457 57.76 135.857 57.416 137.745 57.416H140.721C140.721 56.6 140.473 55.976 139.977 55.544C139.481 55.096 138.737 54.872 137.745 54.872C137.057 54.872 136.377 54.984 135.705 55.208C135.049 55.416 134.489 55.704 134.025 56.072L132.681 53.456C133.385 52.96 134.225 52.576 135.201 52.304C136.193 52.032 137.209 51.896 138.249 51.896ZM137.961 62.672C138.601 62.672 139.169 62.528 139.665 62.24C140.161 61.936 140.513 61.496 140.721 60.92V59.6H138.153C136.617 59.6 135.849 60.104 135.849 61.112C135.849 61.592 136.033 61.976 136.401 62.264C136.785 62.536 137.305 62.672 137.961 62.672ZM164.389 51.896C166.005 51.896 167.285 52.376 168.229 53.336C169.189 54.28 169.669 55.704 169.669 57.608V65H165.925V58.184C165.925 57.16 165.709 56.4 165.277 55.904C164.861 55.392 164.261 55.136 163.477 55.136C162.597 55.136 161.901 55.424 161.389 56C160.877 56.56 160.621 57.4 160.621 58.52V65H156.877V58.184C156.877 56.152 156.061 55.136 154.429 55.136C153.565 55.136 152.877 55.424 152.365 56C151.853 56.56 151.597 57.4 151.597 58.52V65H147.853V52.088H151.429V53.576C151.909 53.032 152.493 52.616 153.181 52.328C153.885 52.04 154.653 51.896 155.485 51.896C156.397 51.896 157.221 52.08 157.957 52.448C158.693 52.8 159.285 53.32 159.733 54.008C160.261 53.336 160.925 52.816 161.725 52.448C162.541 52.08 163.429 51.896 164.389 51.896Z" fill="white"/>
</svg>
